<!-- Generated by IcoMoon.io -->
<svg version="1.1" xmlns="http://www.w3.org/2000/svg" width="6778" height="1024" viewBox="0 0 6778 1024">
<title></title>
<g id="icomoon-ignore">
</g>
<path d="M415.803 663.072h-120.374v68.484h239.431v-68.484h-119.057z"></path>
<path d="M614.090 329.233h-113.237v9.83h-18.615v-50.981h-134.188v50.981h-18.637v-9.83h-113.214l-88.033 147.988v70.368c0 0 26.596-0.041 58.893-0.041v70.561h108.347v20.517h34.028v-124.596h-103.040c13.473-22.667 32.34-54.355 40.476-68.018v51.714h81.201v124.889h134.166v-124.889h81.172v-51.661c8.143 13.707 26.946 45.361 40.431 67.964h-103.010v124.574h33.987v-20.495h108.39v-70.561h58.958v-70.346l-88.076-147.968zM295.407 547.535v36.959h-74.318v-36.959h74.318zM266.85 407.611h-16.589l-63.332 106.355h-24.754v-27.607c4.133-6.971 65.076-109.385 73.496-123.524h31.18v44.776zM554.957 407.611h-54.126v55.971h33.997v-22.367h20.129v48.057h-81.181v124.896h-117.172v-124.896h-81.237v-48.057h20.063v22.367h34.028v-55.971h-54.070c0-17.169 0-33.451 0-44.785h20.063v22.345h34.028v-37.783c14.921 0 27.168 0 27.168 0v-50.934h117.204v50.934h27.068v37.805h34.009v-22.357h20.117v44.788l-0.088-0.012zM609.224 584.494h-74.374v-36.959h74.374v36.959zM668.128 513.975h-24.778l-63.322-106.352h-16.586v-44.788h31.169c8.419 14.151 69.296 116.595 73.518 123.524v27.616z"></path>
<path d="M418.589 122.762c-217.375 0-394.208 174.654-394.208 389.265 0 214.557 176.833 389.21 394.208 389.21 217.342 0 394.118-174.653 394.118-389.21 0-214.611-176.777-389.265-394.118-389.265zM418.589 878.007c-204.395 0-370.682-164.164-370.682-365.98 0-201.86 166.309-366.043 370.682-366.043 204.339 0 370.581 164.184 370.581 366.043 0 201.847-166.242 365.98-370.581 365.98z"></path>
<path d="M1399.784 232.96l-1.26-33.008h8.453c2.521 23.784 13.529 32.142 34.226 33.008 23.255 0.758 36.354-23.406 32.166-38.464-3.838-13.727-12.717-20.872-31.288-30.020-24.086-12.114-39.741-25.495-41.023-47.612-1.655-27.552 22.43-54.259 87.55-40.499l2.094 29.273h-8.441c-3.847-18.826-11.861-22.161-27.102-23.838-12.673-1.267-25.795 4.211-30.454 14.214-9.691 21.673 8.475 33.387 31.31 45.902 38.032 20.894 43.118 36.71 42.713 54.302-1.282 28.375-43.569 61.339-98.943 36.743z"></path>
<path d="M1584.93 202.475v-113.585h-24.096v-8.78c19.063 0 31.31-14.994 37.678-36.765h10.547v33.008h55.44v12.525h-55.44v103.138c0 26.329-0.407 49.29 56.24 24.618l2.972 8.379c-76.127 41.355-83.341-5.456-83.341-22.539z"></path>
<path d="M1777.308 98.944v112.34c0 15.416 0.875 18.75 19.042 18.75v7.535l-23.681-0.855h-16.060l-22.847 0.855v-7.535c18.156 0 19.866-4.168 19.866-18.372v-111.030c0-12.092-2.511-16.748-19.866-16.748v-7.481l22.847 0.465h16.060l24.086-0.465v7.481c-14.765 0-19.424 2.934-19.446 15.059z"></path>
<path d="M2008.179 230.006c-6.315 3.356-33.395 10.912-57.468 10.912-55.408 0-87.496-36.353-87.496-81.865 0-47.179 39.741-76.398 70.58-81.41 31.288-5.456 61.316 0.379 74.811 8.347l1.295 31.33h-8.914c-6.324-28.44-27.090-31.774-47.765-32.164-36.364-1.288-67.238 25.928-64.673 72.208 2.523 42.632 33.395 73.54 62.162 73.54 13.495 0 48.194-1.689 52.38-32.175h8.475z"></path>
<path d="M2233.52 236.714h-16.016l-21.18 0.866v-7.545c13.934 0 16.489-2.479 16.489-17.95v-51.747h-96.805v50.113c0 15.47 1.677 19.616 18.176 19.616v7.546l-23.669-0.888h-16.072l-21.992 0.888v-7.557c16.906 0 19.427-3.789 19.427-18.761v-111.506c0-12.926-2.521-15.903-18.615-15.903v-7.47l25.368 0.444h16.499l18.573-0.444v7.47c-18.166 0-17.718 5.034-17.718 15.514v49.29h96.805v-49.723c0-12.114-1.677-15.091-18.178-15.091v-7.47l19.449 0.444h16.916l24.086-0.444v7.47c-18.593 0-18.144 5.034-18.144 13.803v114.407c0 13.781 1.241 17.95 19 17.95v7.535z"></path>
<path d="M2340.501 202.475v-113.585h-24.096v-8.78c19.010 0 31.288-14.994 37.647-36.765h10.579v33.008h55.386v12.525h-55.386v103.138c0 26.329-0.427 49.29 56.218 24.618l2.972 8.379c-76.137 41.355-83.319-5.456-83.319-22.539z"></path>
<path d="M2532.888 98.944v112.34c0 15.416 0.853 18.75 19.017 18.75v7.535l-23.65-0.855h-16.091l-22.821 0.855v-7.535c18.139 0 19.846-4.168 19.846-18.372v-111.030c0-12.092-2.511-16.748-19.846-16.748v-7.481l22.821 0.465h16.091l24.064-0.465v7.481c-14.799 0-19.432 2.934-19.432 15.059z"></path>
<path d="M2786.987 106.845v131.534h-11.41c-13.093-15.416-105.277-112.719-114.152-126.933v85.979c0 28.418 3.389 32.597 23.674 32.597v7.535l-21.992-0.888h-16.067l-21.992 0.888v-7.535c18.603 0 21.577-4.947 21.577-33.831v-85.156c0-22.518-4.706-27.173-26.185-27.173v-7.481l21.090 0.466h19.87c11.41 14.171 101.888 108.93 110.348 122.299v-93.124c0-17.126-5.534-22.16-22.406-22.16v-7.481l20.724 0.466h16.482l20.285-0.466v7.481c-17.749 0.021-19.846 4.677-19.846 22.983z"></path>
<path d="M3002.173 258.021c0 28.777-19.87 45.524-51.98 47.158-31.744 1.246-69.339-10.469-60.489-36.764 5.486-15.46 38.888-25.462 67.633-24.64 22.869 0.888 40.155-2.479 44.837-5.413v19.659zM3028.797 247.976v-36.311h-8.436c-23.698 21.316-38.888 20.916-55.832 19.617-34.67-2.923-59.611-33.809-62.586-74.742-3.389-46.313 27.087-73.843 64.268-73.031 20.748 0.379 41.033 4.222 49.932 32.553h8.46l-1.292-30.886c-15.653-7.892-45.666-13.77-76.922-8.791-30.891 5.391-71.070 34.296-71.070 80.566 0 35.498 16.92 66.796 51.176 78.466-28.306 1.267-54.955 13.38-61.733 31.773-12.288 33.809 39.741 53.014 77.385 52.192 54.955-1.658 86.65-30.052 86.65-71.407z"></path>
<path d="M3387.782 236.714h-16.067l-21.163 0.866v-7.545c13.97 0 16.482-2.479 16.482-17.95v-51.747h-96.792v50.113c0 15.47 1.658 19.616 18.188 19.616v7.546l-23.674-0.888h-16.091l-22.016 0.888v-7.557c16.945 0 19.505-3.789 19.505-18.761v-111.506c0-12.926-2.56-15.903-18.627-15.903v-7.47l25.356 0.444h16.506l18.603-0.444v7.47c-18.188 0-17.749 5.034-17.749 15.514v49.29h96.792v-49.723c0-12.114-1.658-15.091-18.164-15.091v-7.47l19.456 0.444h16.896l24.088-0.444v7.47c-18.578 0-18.164 5.034-18.164 13.803v114.407c0 13.781 1.268 17.95 19.042 17.95v7.535z"></path>
<path d="M3589.022 130.22c-0.414 11.692-6.754 13.76-32.963 13.76h-52.834c0-32.965 19.87-57.193 43.593-57.994 25.332-0.845 43.057 24.661 42.203 44.234zM3615.256 223.344l-2.974-7.925c-90.917 36.311-108.666-27.108-109.080-59.672 29.598-0.465 73.972-0.888 101.912-0.465 5.461 0 8.46 1.689 8.899-10.046 1.292-36.765-24.088-70.574-65.999-69.708-38.449 0.465-71.875 32.986-71.875 86.433 0.024 45.479 38.936 108.53 139.118 61.383z"></path>
<path d="M3697.688 202.475v-113.585h-24.088v-8.78c19.017 0 31.281-14.994 37.644-36.765h10.581v33.008h55.418v12.525h-55.418v103.138c0 26.329-0.39 49.29 56.222 24.618l2.999 8.379c-76.166 41.355-83.358-5.456-83.358-22.539z"></path>
<path d="M4144.128 106.845v131.534h-11.313c-13.141-15.416-105.326-112.719-114.152-126.933v85.979c0 28.418 3.291 32.597 23.576 32.597v7.535l-21.918-0.888h-16.165l-21.967 0.888v-7.535c18.651 0 21.553-4.947 21.553-33.831v-85.156c0-22.518-4.632-27.173-26.185-27.173v-7.481l21.090 0.466h19.968c11.386 14.171 101.79 108.93 110.251 122.299v-93.124c0-17.126-5.486-22.16-22.406-22.16v-7.481l20.748 0.466h16.603l20.285-0.466v7.481c-17.822 0.021-19.968 4.677-19.968 22.983z"></path>
<path d="M4327.229 208.804c-55.345 35.878-69.266 5.792-68.901-11.735 0.39-21.294 24.917-35.498 68.901-35.909v47.645zM4384.744 225.465l-4.632-5.857c-5.51 4.59-11.874 7.080-15.701 7.502-12.654 2.479-12.19-10.826-12.19-25.928v-90.147c0-24.207-14.799-36.765-39.424-36.31-27.794 0.444-55.832 14.637-67.535 30.063-5.534 7.502-9.387 22.561 1.268 22.561 3.365 0 16.823-3.746 16.823-8.78 0-16.26 16.116-32.521 41.886-32.521 16.798 0 21.528 9.137 21.528 32.889v30.897c-62.147 0-92.965 25.495-95.159 51.758-2.511 24.64 26.624 66.84 96.085 18.436 0 14.193 12.117 21.294 25.795 21.294 12.215 0.022 21.114-7.545 31.256-15.86z"></path>
<path d="M4461.251 202.475v-113.585h-24.113v-8.78c19.066 0 31.33-14.994 37.693-36.765h10.508v33.008h55.491v12.525h-55.491v103.138c0 26.329-0.439 49.29 56.32 24.618l2.95 8.379c-76.093 41.355-83.358-5.456-83.358-22.539z"></path>
<path d="M4653.666 98.944v112.34c0 15.416 0.756 18.75 18.944 18.75v7.535l-23.65-0.855h-16.091l-22.772 0.855v-7.535c18.115 0 19.87-4.168 19.87-18.372v-111.030c0-12.092-2.584-16.748-19.87-16.748v-7.481l22.772 0.465h16.091l24.113-0.465v7.481c-14.824 0-19.407 2.934-19.407 15.059z"></path>
<path d="M4882.432 149.025c5.437 40.933-15.726 77.243-47.421 81.421-32.134 4.168-62.171-25.484-67.17-66.428-5.51-40.878 15.677-76.82 47.275-80.966 32.183-4.19 62.22 25.43 67.316 65.973zM4910.665 156.527c0-46.746-38.034-84.301-85.723-84.301-47.397 0-85.431 37.555-85.431 84.301 0 46.735 38.059 84.788 85.431 84.788 47.714 0 85.723-38.042 85.723-84.788z"></path>
<path d="M5143.65 106.845v131.534h-11.41c-13.093-15.416-105.301-112.719-114.2-126.933v85.979c0 28.418 3.438 32.597 23.723 32.597v7.535l-22.040-0.888h-15.994l-22.016 0.888v-7.535c18.578 0 21.577-4.947 21.577-33.831v-85.156c0-22.518-4.632-27.173-26.234-27.173v-7.481l21.114 0.466h19.87c11.508 14.171 101.986 108.93 110.373 122.299v-93.124c0-17.126-5.559-22.16-22.455-22.16v-7.481l20.773 0.466h16.53l20.236-0.466v7.481c-17.701 0.021-19.846 4.677-19.846 22.983z"></path>
<path d="M5326.726 208.804c-55.345 35.878-69.291 5.792-68.876-11.735 0.39-21.294 24.917-35.498 68.876-35.909v47.645zM5384.265 225.465l-4.681-5.857c-5.534 4.59-11.849 7.080-15.628 7.502-12.702 2.479-12.264-10.826-12.264-25.928v-90.147c0-24.207-14.799-36.765-39.326-36.31-27.892 0.444-55.759 14.637-67.706 30.063-5.437 7.502-9.24 22.561 1.195 22.561 3.438 0 17.067-3.746 17.067-8.78 0-16.26 16.043-32.521 41.813-32.521 16.92 0 21.553 9.137 21.553 32.889v30.897c-62.171 0-92.989 25.495-95.183 51.758-2.511 24.64 26.673 66.84 95.988 18.436 0 14.193 12.239 21.294 25.819 21.294 12.264 0.022 21.138-7.545 31.354-15.86z"></path>
<path d="M5557.541 237.575l-32.939-0.866h-52.468l-28.258 0.866v-7.546c19.87 0 21.114-4.569 21.114-19.605v-156.141c0-17.949-1.609-23.828-17.749-23.828v-7.502l22.382 0.444h16.506l24.527-0.444v7.502c-15.604 0-20.334 2.934-20.334 21.76v152.742c0 20.515 7.631 23.405 27.989 23.405 21.187 0.401 35.474-2.901 41.058-27.53l6.754 1.645z"></path>
<path d="M5732.645 130.22c-0.439 11.692-6.802 13.76-32.987 13.76h-52.882c0-32.965 19.846-57.193 43.544-57.994 25.381-0.845 43.13 24.661 42.325 44.234zM5758.83 223.344l-2.974-7.925c-90.868 36.311-108.544-27.108-109.032-59.672 29.574-0.465 73.996-0.888 101.912-0.465 5.486 0 8.436 1.689 8.948-10.046 1.146-36.765-24.186-70.574-66.048-69.708-38.498 0.465-71.875 32.986-71.875 86.433-0.049 45.479 38.888 108.53 139.069 61.383z"></path>
<path d="M6029.848 182.873c-6.339 0.801-9.752 1.267-19.505-0.422v-7.459c27.575 1.202 43.179-19.205 42.74-45.544 0-23.405-19.87-48.045-52.907-44.278v172.088c0 18.717 1.658 24.564 22.43 24.564v7.936l-25.819-0.802h-16.823l-25.819 0.802v-7.936c19.846 0 21.65-3.757 21.65-24.564v-154.15c0-15.838-1.365-19.183-20.334-19.183v-7.492l22.333 0.444 24.917-0.444c50.371-0.379 73.118 20.894 76.069 50.535 2.633 25.019-21.455 53.837-48.933 55.905z"></path>
<path d="M6242.548 208.804c-55.491 35.878-69.413 5.792-68.974-11.735 0.39-21.294 24.942-35.498 68.974-35.909v47.645zM6299.965 225.465l-4.632-5.857c-5.51 4.59-11.849 7.080-15.628 7.502-12.629 2.479-12.288-10.826-12.288-25.928v-90.147c0-24.207-14.799-36.765-39.278-36.31-27.843 0.444-55.857 14.637-67.657 30.063-5.534 7.502-9.314 22.561 1.243 22.561 3.389 0 17.018-3.746 17.018-8.78 0-16.26 15.97-32.521 41.789-32.521 16.896 0 21.577 9.137 21.577 32.889v30.897c-62.22 0-93.013 25.495-95.134 51.758-2.511 24.64 26.6 66.84 96.037 18.436 0 14.193 12.19 21.294 25.771 21.294 12.19 0.022 21.041-7.545 31.183-15.86z"></path>
<path d="M6458.173 122.725c1.243 23.806-13.946 38.843-55.832 37.598v-74.265c33.816-5.543 54.516 8.715 55.832 36.667zM6521.563 237.577v-7.546c-27.916-3.345-48.64-37.576-71.899-65.128 13.117-6.236 32.158-17.527 31.281-42.567-0.805-34.653-27.453-48.5-74.825-46.346l-21.967 0.823-24.43-0.444v7.481c13.873 0 18.944 2.176 18.944 20.515v107.263c0 15.903-1.707 18.393-18.944 18.393v7.535l21.138-0.877h16.823l27.941 0.877v-7.535c-20.724 0-23.211-2.934-23.211-19.616v-38.8c7.997 0.401 17.335-0.487 23.211-1.288 13.58 13.803 41.423 69.329 84.163 67.662l11.776-0.401z"></path>
<path d="M6720.658 238.376c-45.641 2.533-94.257-65.973-107.349-82.233v53.858c0 17.105 2.072 20.028 18.603 20.028v7.546l-21.211-0.866h-16.408l-21.65 0.866v-7.546c13.946 0 16.067-2.057 16.067-15.015v-166.631c0-14.593 1.682-17.906-16.067-17.906v-7.524l21.992 0.466h16.506l19.895-0.466v7.524c-16.067 0-17.774 2.923-17.774 19.605v100.67c19.87-16.726 39.326-33.831 60.050-53.902 9.362-8.736 10.191-12.958-5.925-12.958v-7.47l20.724 0.444h16.53l16.043-0.444-0.414 7.47c-9.265 0-16.92 2.176-33.012 16.748l-51.176 47.136c52.005 66.027 79.506 80.977 96.061 82.309v7.546z"></path>
<path d="M1702.156 646.932c0.9 98.636-75.644 152.99-140.973 152.99-47.623 0-68.157-6.463-68.157-47.882v-264.541c27.102-1.872 38.295-1.872 58.807-1.872 88.678 0.010 148.439 65.441 150.323 161.304zM1759.054 628.485c-13.987-124.411-111.996-164.986-205.336-164.076l-83.066 0.973-72.794-0.973v16.618c32.658 0 42.942 1.838 42.942 32.261v246.991c0 33.148-3.75 43.325-42.942 43.325v16.552l81.159-1.819 86.838 1.819c105.452 1.916 208.111-71.841 193.2-191.671z"></path>
<path d="M2079.22 583.314c-0.922 25.829-14.943 30.442-72.826 30.442h-116.658c0-72.858 43.874-126.262 96.134-128.102 55.998-1.851 95.212 54.335 93.35 97.66zM2137.105 788.843l-6.556-17.506c-200.721 80.24-239.892-59.867-240.825-131.772 65.329-0.953 163.316-1.799 224.939-0.953 12.137 0 18.693 3.701 19.624-22.118 2.818-81.084-53.214-155.75-145.598-153.888-84.965 0.887-158.713 72.804-158.713 190.761 0.022 100.528 85.884 239.631 307.129 135.475z"></path>
<path d="M2779.282 818.4h-35.499l-46.641 1.819v-16.562c30.793 0 36.401-5.532 36.401-39.646v-114.342h-213.797v110.629c0 34.092 3.779 43.381 40.18 43.381v16.54l-52.297-1.819h-35.45l-48.538 1.819v-16.54c37.347 0 42.954-8.348 42.954-41.465v-246.148c0-28.548-5.608-35.031-41.089-35.031v-16.608l56.010 0.953h36.401l41.058-0.953v16.596c-40.155 0-39.229 11.054-39.229 34.102v108.734h213.748v-109.675c0-26.665-3.706-33.148-40.107-33.148v-16.608l42.935 0.953h37.327l53.224-0.953v16.596c-41.082 0-40.155 11.054-40.155 30.442v252.545c0 30.41 2.828 39.624 41.984 39.624v16.552z"></path>
<path d="M3216.067 624.818c12.142 90.319-34.523 170.506-104.521 179.751-70.924 9.182-137.192-56.24-148.382-146.549-12.142-90.395 34.499-169.587 104.497-178.842 70.973-9.204 137.24 56.218 148.407 145.64zM3278.629 641.458c0-103.29-84.017-186.185-189.513-186.185-104.521 0-188.514 82.895-188.514 186.185 0 103.158 83.992 187.058 188.514 187.058 105.496 0.012 189.513-83.89 189.513-187.058z"></path>
<path d="M3635.151 865.373c0 63.646-43.886 100.411-114.81 104.155-69.998 2.794-153.064-23.025-133.461-81.106 12.117-34.080 85.87-56.242 149.333-54.401 50.42 1.863 88.698-5.52 98.914-11.952l0.024 43.303zM3693.934 843.244v-80.121h-18.627c-52.273 46.963-85.87 46.009-123.197 43.325-76.507-6.539-131.608-74.742-138.167-164.964-7.461-102.327 59.733-163.126 141.897-161.307 45.739 0.909 90.526 9.223 110.153 71.895h18.627l-2.828-68.181c-34.499-17.506-100.766-30.442-169.813-19.388-68.194 12.005-156.891 75.554-156.891 177.879 0 78.358 37.352 147.439 112.933 173.375-62.488 2.728-121.271 29.447-136.241 70.044-27.087 74.623 87.723 116.994 170.813 115.198 121.393-3.833 191.342-66.501 191.342-157.755z"></path>
<path d="M4013.202 583.314c-0.951 25.829-14.921 30.442-72.85 30.442h-116.663c0-72.858 43.861-126.262 96.134-128.102 56.027-1.851 95.281 54.335 93.379 97.66zM4071.083 788.843l-6.607-17.506c-200.655 80.24-239.811-59.867-240.811-131.772 65.341-0.953 163.377-1.799 224.914-0.953 12.117 0 18.651 3.701 19.627-22.118 2.779-81.084-53.175-155.75-145.554-153.888-84.943 0.887-158.72 72.804-158.72 190.761 0.073 100.528 85.943 239.631 307.151 135.475z"></path>
<path d="M4635.77 528.95l-116.712 296.843h-29.915l-116.712-302.387c-10.264-27.682-19.602-42.416-52.224-42.416v-16.574l53.126 0.931h30.842l51.346-0.931v16.574c-30.818 0-41.935 3.725-30.818 35.055l88.698 242.454 91.477-239.726c11.215-29.435 7.558-37.793-23.333-37.793v-16.574h28.989l36.303 0.929 32.67-0.929v16.574c-22.235 0.032-28.843 12.037-43.739 47.97z"></path>
<path d="M4964.279 583.314c-0.878 25.829-14.946 30.442-72.85 30.442h-116.638c-0.024-72.858 43.886-126.262 96.158-128.102 56.052-1.851 95.256 54.335 93.33 97.66zM5022.184 788.843l-6.583-17.506c-200.728 80.24-239.835-59.867-240.835-131.772 65.341-0.953 163.352-1.799 224.963-0.953 12.093 0 18.676 3.701 19.554-22.118 2.877-81.084-53.175-155.75-145.554-153.888-84.919 0.887-158.72 72.804-158.72 190.761 0.049 100.528 85.943 239.631 307.176 135.475z"></path>
<path d="M5344.207 820.226l-72.85-1.819h-115.712l-62.562 1.819v-16.562c43.861 0 46.714-10.167 46.714-43.337v-344.715c0-39.646-3.779-52.551-39.205-52.551v-16.574l49.469 0.866h36.328l54.126-0.866v16.574c-34.499 0-44.715 6.507-44.715 47.982v337.323c0 45.144 16.725 51.595 61.586 51.595 46.641 0.953 78.336-6.451 90.526-60.83l14.848 3.703z"></path>
<path d="M5733.376 529.9v154.778c0 103.268-63.415 145.705-143.677 145.705-81.189-0.909-142.799-36.896-142.799-134.632v-172.347c0-29.523 3.779-42.396-35.474-42.396v-16.594l52.297 0.929h36.425l38.229-0.929v16.594c-32.719 0-37.327 7.395-37.327 37.783v185.22c0 62.627 34.475 96.773 97.085 96.773 62.464 0 99.889-48.847 99.889-98.614v-174.165c0-44.203-3.828-47.016-42.91-47.016v-16.596l47.47 0.951h35.523l30.671-0.951v16.596c-26.892 0.032-35.401 3.713-35.401 48.911z"></path>
<path d="M6358.235 522.559l-119.491 303.243h-28.038l-97.987-252.589-97.061 252.589h-29.891l-116.687-302.399c-10.313-27.67-16.847-42.394-51.346-42.394l-0.975-16.596 53.224 0.953h30.818l51.346-0.953v16.596c-30.842 0-42.008 3.682-30.842 35.011l89.624 241.481 67.291-176.072c26.088-71.841 7.485-100.452-36.376-100.452l-0.951-16.596 56.003 0.951h46.616l40.18-0.951v16.596c-28.038 0-45.836 11.983-35.547 39.697l85.992 237.768 90.551-237.768c10.264-28.645 11.191-39.697-31.793-39.697v-16.596l45.739 0.951h29.013l32.646-0.951v16.596c-22.455 0.054-27.087 4.664-42.057 41.582z"></path>
<path d="M6674.261 583.314c-0.853 25.829-14.848 30.442-72.802 30.442h-116.712c0-72.858 43.934-126.262 96.158-128.102 56.052-1.851 95.232 54.335 93.355 97.66zM6732.117 788.843l-6.51-17.506c-200.728 80.24-239.909-59.867-240.859-131.772 65.341-0.953 163.401-1.799 224.939-0.953 12.117 0 18.676 3.701 19.651-22.118 2.779-81.084-53.199-155.75-145.627-153.888-84.919 0.887-158.598 72.804-158.598 190.761 0 100.528 85.821 239.631 307.005 135.475z"></path>
</svg>
